# xmcd
#
# Track frame offsets:
#	150
#	13206
#	25647
#	45873
#	60413
#	75251
#	94893
#	107974
#	123736
#	139108
#	154546
#
# Disc length: 2291 seconds
#
# Revision: 0
# Processed by: cddbd v1.5.2PL0 Copyright (c) Steve Scherf et al.
# Submitted via: EZCDAudioConverter 3.1.6.1
#
DISCID=7e08f10b
DTITLE=Elea Plotkin - Behind The Eyes
DYEAR=1997
DGENRE=Pop
TTITLE0=Livin' Large
TTITLE1=Hanging On A Precipice
TTITLE2=I'll Be Here For You
TTITLE3=To My Core
TTITLE4=There's A Place
TTITLE5=Stay
TTITLE6=Walk 100 Miles
TTITLE7=Sorry
TTITLE8=Tell Me And I'll Listen Why
TTITLE9=Goodbye
TTITLE10=Divine Plan
EXTD=
EXTT0=
EXTT1=
EXTT2=
EXTT3=
EXTT4=
EXTT5=
EXTT6=
EXTT7=
EXTT8=
EXTT9=
EXTT10=
PLAYORDER=
